inDegrees=yes
name=ik_S55_A12_T01
DataType=double
version=3
OpenSimVersion=4.3-2021-08-27-4bc7ad9
endheader
time	pelvis_tilt	pelvis_list	pelvis_rotation	pelvis_tx	pelvis_ty	pelvis_tz	hip_flexion_r	hip_adduction_r	hip_rotation_r	knee_angle_r	knee_angle_r_beta	ankle_angle_r	subtalar_angle_r	mtp_angle_r	hip_flexion_l	hip_adduction_l	hip_rotation_l	knee_angle_l	knee_angle_l_beta	ankle_angle_l	subtalar_angle_l	mtp_angle_l	lumbar_extension	lumbar_bending	lumbar_rotation	arm_flex_r	arm_add_r	arm_rot_r	elbow_flex_r	pro_sup_r	wrist_flex_r	wrist_dev_r	arm_flex_l	arm_add_l	arm_rot_l	elbow_flex_l	pro_sup_l	wrist_flex_l	wrist_dev_l
0	0	0	0	0	0.9399999999999999	0	0	0	0	0	0	0	0	0	0	0	0	0	0	0	0	0	0	0	0	0	0	0	0	89.99999999963507	0	0	0	0	0	0	89.99999999869995	0	0
0.02	0.5500970584642243	0.2165001542714221	29.43594400306491	0	0.9399999999999999	0	1.623015867068341	-0.7615107469829611	-0.5454182127963063	2.528694195288301	0.04413403948384934	0	0	0	1.623015867068341	-0.7615107469829611	-0.5454182127963063	2.528694195288301	0.04413403948384934	0	0	0	0.6585572192887099	0.3602989786542171	13.6840765701144	-0.07704718330798185	-5.039542806611743	-2.671168240754646	8.621060165983209	100.0248966502325	0	0	0.1419518737365629	-4.483972801071617	-9.342800275304006	5.904964762511269	119.0359129275357	0	0
0.04	0.5271219569882055	0.1949030116549628	29.44592404579099	0	0.9399999999999999	0	1.640440465292529	-0.7706647591513508	-0.5513150832035589	2.555458112050947	0.0446011579520872	0	0	0	1.640440465292529	-0.7706647591513508	-0.5513150832035589	2.555458112050947	0.0446011579520872	0	0	0	0.6279805522355499	0.3522570426397389	13.65918086383789	-0.0154436260598548	-5.015288676647597	-2.529691178327286	8.606306220373403	99.91349668653612	0	1.616420763446103e-35	0.2029669948005459	-4.523156401586928	-9.494793416688713	5.874874310315198	119.100119604095	0	1.616420763446103e-35
0.06	0.5108147056600109	0.1872505465399186	29.44764707501549	0	0.9399999999999999	0	1.796425035965548	-0.8369401233611484	-0.6110035058761555	2.63689056006046	0.04602242228781232	0	0	0	1.796425035965548	-0.8369401233611484	-0.6110035058761555	2.63689056006046	0.04602242228781232	0	0	0	0.6096575822588309	0.3524651294709868	13.60972891876123	0.01528263024869233	-4.987687349520394	-2.369034427590047	8.601549069359757	99.81266003706637	0	0	0.2039790685933352	-4.496235589932343	-9.520373280451482	5.830256430988108	119.0322359591948	0	0
0.08	0.4676438671673602	0.196553838430843	29.67700273913857	0	0.9399999999999999	0	3.685973535861919	-1.736519412174645	-1.287258369799959	4.710908330639566	0.0822208611292901	0	0	0	3.685973535861919	-1.736519412174645	-1.287258369799959	4.710908330639566	0.0822208611292901	0	0	0	0.5952906636032566	0.313656072893332	13.30928337660403	0.06602476280788645	-5.015526488202009	-2.295708217105079	8.605979600072283	99.7862858957308	0	0	0.2052606598461508	-4.528247963443806	-9.546768109944152	5.865776667966076	118.9946935250191	0	0
0.1	0.472764275232489	0.2649389340927216	29.84850044804671	0	0.9399999999999999	0	5.273358556307983	-2.413568985776886	-1.84612154241322	6.182627493580713	0.107907206187308	0	0	0	5.273358556307983	-2.413568985776886	-1.84612154241322	6.182627493580713	0.107907206187308	0	0	0	0.6470734043690519	0.3200288858594974	13.12387057112866	-0.03484223858706905	-5.044625614151007	-2.256314825263758	8.642265232013512	99.77996005914434	0	0	0.08823723829273634	-4.490103657614924	-9.456843872012804	5.884845206777899	118.8989753246721	0	0
0.12	0.4626880650214239	0.2857211698132364	29.89166172763964	0	0.9399999999999999	0	5.609057994671384	-2.541595575453838	-1.962507228880891	6.426988947026113	0.1121721181148891	0	0	0	5.609057994671384	-2.541595575453838	-1.962507228880891	6.426988947026113	0.1121721181148891	0	0	0	0.6477236481991719	0.3408868476072372	13.07253910615848	-0.05037743534879179	-5.076560546777852	-2.312395522277856	8.664312042271643	99.79823514341075	0	0	0.0501105075628643	-4.435298976395833	-9.411575933347999	5.873349601692906	118.81581199302	0	0
0.14	0.4371974483541416	0.2909963169043408	29.99681979029024	0	0.9399999999999999	0	6.589822541118517	-2.92586965613863	-2.294718366941297	7.315229653196933	0.1276748429878094	0	0	0	6.589822541118517	-2.92586965613863	-2.294718366941297	7.315229653196933	0.1276748429878094	0	0	0	0.634907846239543	0.3211385183751219	12.91488854275505	-0.01866156481438439	-5.064127499458608	-2.293840644186827	8.682909719983563	99.92123267179909	0	0	0.04777868043732301	-4.436202751757316	-9.570510815163045	5.904919276315736	118.9542423367698	0	0
0.16	0.4506481611446596	0.3190074452953498	30.0701682243839	0	0.9399999999999999	0	6.900281491117441	-3.043111184920412	-2.39936894210508	7.571354524998582	0.1321450652969966	0	0	0	6.900281491117441	-3.043111184920412	-2.39936894210508	7.571354524998582	0.1321450652969966	0	0	0	0.6600874939714189	0.3363899491493749	12.86229208080012	-0.09575831902835984	-5.066111592412015	-2.274676121256028	8.65886617063923	99.97649566451305	0	0	-0.008782541750946235	-4.433351400432853	-9.620740478621228	5.884989480882347	119.0766426166419	0	0
0.18	0.4634846204889911	0.3608593893440478	30.14253052244632	0	0.9399999999999999	0	7.175943670655655	-3.14330704816939	-2.491577501958959	7.788410824140989	0.1359334123792253	0	0	0	7.175943670655655	-3.14330704816939	-2.491577501958959	7.788410824140989	0.1359334123792253	0	0	0	0.6917303803594853	0.3641064044623399	12.81683307130679	-0.1850444457779663	-5.100991777328069	-2.220402802570532	8.669437541041178	99.96597830434808	0	0	-0.0753060973489534	-4.40289880961414	-9.640477678287631	5.850233713038702	119.040914331805	0	0
0.2	0.462925682301103	0.3693880829639307	30.27363205283068	0	0.9399999999999999	0	8.121488432493743	-3.503814831266342	-2.804177905038601	8.675318222051464	0.1514128666330586	0	0	0	8.121488432493743	-3.503814831266342	-2.804177905038601	8.675318222051464	0.1514128666330586	0	0	0	0.6972520339815362	0.3571892439241593	12.69336267861457	-0.2370086141630477	-5.11370812065885	-2.152304536553311	8.68911639105025	99.98961714137607	0	0	-0.1151506744170683	-4.399522423240146	-9.629757035082221	5.843553720111313	118.9096612459917	0	0
0.22	0.4610464870981506	0.3703320349479851	30.29559299647767	0	0.9399999999999999	0	8.128550740116475	-3.507204757472745	-2.806573981051694	8.684429953168149	0.1515718963416011	0	0	0	8.128550740116475	-3.507204757472745	-2.806573981051694	8.684429953168149	0.1515718963416011	0	0	0	0.6961060891828216	0.3588847667961546	12.68924995425748	-0.2601774628355216	-5.112971239217273	-2.080893031078779	8.678347358891871	100.0908432132634	0	0	-0.1225033464535053	-4.40825136747659	-9.654936777585723	5.847829633027485	118.9457943757686	0	0
0.24	0.4327426916399137	0.3383915999685508	30.30448798613433	0	0.9399999999999999	0	8.23323546921004	-3.551841672086806	-2.841613425452418	8.797911787599258	0.1535525279936271	0	0	0	8.23323546921004	-3.551841672086806	-2.841613425452418	8.797911787599258	0.1535525279936271	0	0	0	0.6554036347767318	0.3451963274405999	12.66580148786081	-0.2198610869005165	-5.090005549101108	-2.02316391774121	8.751960678346002	100.10663768571	0	0	-0.09658671436231993	-4.408732295642955	-9.672437954084696	5.926398463266782	118.8263461484383	0	0
0.26	0.4270184132874212	0.3404306511668554	30.31177155086632	0	0.9399999999999999	0	8.230967352216888	-3.554315560554616	-2.841668565642092	8.799234591579316	0.1535756152784375	0	0	0	8.230967352216888	-3.554315560554616	-2.841668565642092	8.799234591579316	0.1535756152784375	0	0	0	0.6514633388933908	0.349845702488746	12.66732186733588	-0.2700077347521719	-5.080404031519023	-1.97413780127719	8.708725555971874	100.1103178740736	0	0	-0.1268620616751947	-4.388578893114478	-9.622414654758469	5.888043476033967	118.8228965683308	0	0
0.28	0.4158456692545139	0.3242673869890197	30.32566948441703	0	0.9399999999999999	0	8.238394077327715	-3.562783619935982	-2.845261132595945	8.816464405539458	0.1538763322615481	0	0	0	8.238394077327715	-3.562783619935982	-2.845261132595945	8.816464405539458	0.1538763322615481	0	0	0	0.6335983082218503	0.3416243409924877	12.66738119121969	-0.2676236478638995	-5.066475048906809	-1.929418842043218	8.706202572256046	100.0828268571552	0	0	-0.1296493818307161	-4.38103434486441	-9.56892958641685	5.891655710738336	118.7876856384957	0	0
0.3	0.4099546808053353	0.3163944544075	30.35043440823259	0	0.9399999999999999	0	8.367180739022947	-3.610357296072384	-2.887351975895145	8.934312153143495	0.1559331634732978	0	0	0	8.367180739022947	-3.610357296072384	-2.887351975895145	8.934312153143495	0.1559331634732978	0	0	0	0.6242757213624784	0.337179899899278	12.64729421678575	-0.2675144848169252	-5.049223149881063	-1.89217460159681	8.742703567535838	100.0143476620212	0	0	-0.1610474669759024	-4.327349650600253	-9.564035512794417	5.916920363148674	118.6971505517019	0	0
0.32	0.4158384277778268	0.3167153361714932	30.37814486867982	0	0.9399999999999999	0	8.662262454014282	-3.714056153722946	-2.982911657034374	9.19055010477433	0.1604053593978219	0	0	0	8.662262454014282	-3.714056153722946	-2.982911657034374	9.19055010477433	0.1604053593978219	0	0	0	0.6283350421346811	0.3333711156429449	12.59293145127572	-0.298174838043395	-5.057952254628721	-1.869669765845004	8.78175667894101	99.99686676948113	0	0	-0.16408092126042	-4.33448952679992	-9.56963442842355	5.87314166849853	118.59341698835	0	0
0.34	0.405057509023132	0.3118550025240802	30.36964282413558	0	0.9399999999999999	0	8.67671079197722	-3.791957665495548	-3.006707710131695	9.294585481204965	0.1622211192550882	0	0	0	8.67671079197722	-3.791957665495548	-3.006707710131695	9.294585481204965	0.1622211192550882	0	0	0	0.6184082772630101	0.3349960444749606	12.60613145390943	-0.3077236370610555	-5.061255322529385	-1.919764580470566	8.832980245367951	100.0205127029677	0	0	-0.1861776294324879	-4.318490947852907	-9.643044783547575	5.947226149908585	118.7044631225938	0	0
0.36	0.4002967515749432	0.3061444785541933	30.37426744611802	0	0.9399999999999999	0	8.74184307258677	-3.816105846183057	-3.027959661275737	9.355023698520466	0.1632759651412795	0	0	0	8.74184307258677	-3.816105846183057	-3.027959661275737	9.355023698520466	0.1632759651412795	0	0	0	0.6114695530467715	0.3319516857778284	12.58812314870014	-0.3093048445260624	-5.065245820204412	-1.941630057781467	8.805873708104919	100.0006316290892	0	0	-0.210169476340649	-4.310315449381081	-9.695448003733681	5.897095884866991	118.7068738889234	0	0
0.3800000000000001	0.38152320089107	0.2921869009475869	30.4005753793846	0	0.9399999999999999	0	8.932679707229854	-3.882967031720362	-3.089533407495771	9.523091493084925	0.1662093015229947	0	0	0	8.932679707229854	-3.882967031720362	-3.089533407495771	9.523091493084925	0.1662093015229947	0	0	0	0.5873958959360561	0.328789571121653	12.54983245579042	-0.2669819624887873	-5.072172387935523	-1.926235239188482	8.835871501832296	99.94519879468746	0	0	-0.2057818688073242	-4.297394729230868	-9.658806021750069	5.905995266396022	118.6083584290648	0	0
0.4000000000000001	0.384140489869156	0.2874316899294063	30.44034476231077	0	0.9399999999999999	0	9.167345813133082	-3.963430462135986	-3.16461286308301	9.729524016633018	0.1698122287421097	0	0	0	9.167345813133082	-3.963430462135986	-3.16461286308301	9.729524016633018	0.1698122287421097	0	0	0	0.5859508045264999	0.3224233348121515	12.51351217201351	-0.2701142454451728	-5.062498228702657	-1.922642957116823	8.859502306617495	99.9041454660141	0	0	-0.2147681860938514	-4.27207018483769	-9.61162151734016	5.92597807578785	118.5221844840098	0	0
